<?xml version="1.0" standalone="no"?>
<!DOCTYPE svg PUBLIC "-//W3C//DTD SVG 20010904//EN"
 "http://www.w3.org/TR/2001/REC-SVG-20010904/DTD/svg10.dtd">
<svg version="1.0" xmlns="http://www.w3.org/2000/svg"
 width="545.000000pt" height="545.000000pt" viewBox="0 0 545.000000 545.000000"
 preserveAspectRatio="xMidYMid meet">
<metadata>
Created by potrace 1.14, written by Peter Selinger 2001-2017
</metadata>
<g transform="translate(0.000000,545.000000) scale(0.100000,-0.100000)"
fill="#000000" stroke="none">
<path d="M2740 5244 c-30 -25 -60 -48 -65 -52 -6 -5 -240 -180 -520 -390 -281
-210 -515 -385 -520 -390 -6 -4 -186 -139 -400 -300 -215 -160 -394 -295 -400
-300 -5 -4 -84 -64 -175 -132 -91 -67 -205 -164 -255 -214 -144 -147 -255
-324 -323 -517 -95 -268 -100 -463 -27 -994 5 -35 93 -740 100 -800 3 -22 7
-51 10 -65 2 -14 7 -54 10 -89 3 -35 7 -67 9 -70 2 -3 7 -40 10 -80 4 -41 9
-77 11 -80 1 -4 6 -39 9 -80 4 -41 8 -77 10 -80 2 -3 7 -40 10 -80 4 -41 9
-77 11 -80 1 -4 6 -37 9 -76 4 -38 10 -85 14 -103 6 -29 118 190 1266 2485
l1259 2518 958 -1917 c528 -1055 963 -1918 967 -1918 5 0 45 22 90 49 306 183
518 473 608 826 36 138 44 386 19 536 -45 269 -162 503 -350 698 -76 79 -261
223 -1187 917 -604 453 -1099 824 -1100 823 -2 0 -28 -20 -58 -45z"/>
<path d="M1762 2684 c-552 -1103 -1002 -2008 -1000 -2010 2 -2 94 21 203 51
110 30 201 55 202 55 2 0 -56 -117 -128 -261 -71 -144 -128 -264 -125 -267 3
-3 700 290 1548 650 1386 588 1558 659 1688 693 80 21 146 39 148 40 4 4
-1522 3055 -1528 3055 -3 0 -456 -903 -1008 -2006z m1608 67 c327 -655 592
-1192 590 -1194 -7 -6 -2754 -755 -2758 -752 -4 4 1562 3135 1568 3135 3 0
273 -535 600 -1189z"/>
<path d="M2320 2370 l0 -200 200 0 200 0 0 200 0 200 -200 0 -200 0 0 -200z"/>
<path d="M2820 2370 l0 -200 205 0 205 0 0 200 0 200 -205 0 -205 0 0 -200z"/>
<path d="M2320 1860 l0 -200 200 0 200 0 0 200 0 200 -200 0 -200 0 0 -200z"/>
<path d="M2820 1860 l0 -200 205 0 205 0 0 200 0 200 -205 0 -205 0 0 -200z"/>
<path d="M3915 1144 c-418 -179 -1106 -472 -1529 -652 -424 -180 -763 -328
-755 -329 7 -2 637 167 1399 375 l1385 378 137 270 c75 148 137 272 138 277 0
4 -3 7 -7 6 -5 -1 -350 -147 -768 -325z"/>
</g>
</svg>
